<?xml version="1.0" encoding="UTF-8"?>
<svg width="55px" height="32px" viewBox="0 0 55 32" version="1.1" xmlns="http://www.w3.org/2000/svg" xmlns:xlink="http://www.w3.org/1999/xlink">
    <!-- Generator: Sketch 43.1 (39012) - http://www.bohemiancoding.com/sketch -->
    <title>Google+</title>
    <desc>Created with Sketch.</desc>
    <defs></defs>
    <g id="Symbols" stroke="none" stroke-width="1" fill="none" fill-rule="evenodd">
        <g id="Footer" transform="translate(-538.000000, -41.000000)" fill-rule="nonzero" fill="#FFFFFF">
            <g id="Content">
                <g transform="translate(39.000000, 41.000000)">
                    <g id="Contact" transform="translate(369.000000, 0.000000)">
                        <path d="M146.293375,13.7142857 L146.293375,19.2 L155.301465,19.2 C154.938418,21.552 152.578616,26.1028571 146.293375,26.1028571 C140.87037,26.1028571 136.445741,21.5794286 136.445741,16 C136.445741,10.4228571 140.87037,5.89714286 146.293375,5.89714286 C149.37927,5.89714286 151.444096,7.22285714 152.623997,8.36571429 L156.935174,4.18285714 C154.166945,1.57714286 150.581861,0 146.293375,0 C137.51219,0 130.410095,7.15428571 130.410095,16 C130.410095,24.8457143 137.51219,32 146.293375,32 C155.460297,32 161.543594,25.5085714 161.543594,16.3657143 C161.543594,15.3142857 161.427873,14.5142857 161.291731,13.7142857 L146.293375,13.7142857 L146.293375,13.7142857 Z M146.293375,13.7142857 L184.867057,18.2857143 L178.059937,18.2857143 L178.059937,25.1428571 L173.521857,25.1428571 L173.521857,18.2857143 L166.714736,18.2857143 L166.714736,13.7142857 L173.521857,13.7142857 L173.521857,6.85714286 L178.059937,6.85714286 L178.059937,13.7142857 L184.867057,13.7142857 L184.867057,18.2857143 L146.293375,13.7142857 Z" id="Google+"></path>
                    </g>
                </g>
            </g>
        </g>
    </g>
</svg>