<?xml version="1.0" encoding="UTF-8"?>
<svg width="40px" height="32px" viewBox="0 0 40 32" version="1.1" xmlns="http://www.w3.org/2000/svg" xmlns:xlink="http://www.w3.org/1999/xlink">
    <!-- Generator: Sketch 43.1 (39012) - http://www.bohemiancoding.com/sketch -->
    <title>Twitter</title>
    <desc>Created with Sketch.</desc>
    <defs></defs>
    <g id="Symbols" stroke="none" stroke-width="1" fill="none" fill-rule="evenodd">
        <g id="Footer" transform="translate(-461.000000, -41.000000)" fill-rule="nonzero" fill="#FFFFFF">
            <g id="Content">
                <g transform="translate(39.000000, 41.000000)">
                    <g id="Contact" transform="translate(369.000000, 0.000000)">
                        <path d="M92.5908655,3.78835111 C91.1527054,4.43150123 89.6070498,4.86464315 87.9848443,5.05988515 C89.6412529,4.0607055 90.9132835,2.47744053 91.5110239,0.590648072 C89.9621108,1.51599672 88.2454396,2.18867925 86.4180154,2.55127153 C84.9570532,0.981132075 82.8706625,1.42108547e-14 80.5643945,1.42108547e-14 C75.3866925,1.42108547e-14 71.5820018,4.86628384 72.751423,9.91796555 C66.0883281,9.58162428 60.1793307,6.36587367 56.223169,1.47826087 C54.1221197,5.10910582 55.1335551,9.85890074 58.7037101,12.2641509 C57.3909615,12.221493 56.153134,11.8589007 55.0732924,11.2534865 C54.9853415,14.9958983 57.6482993,18.4971288 61.505109,19.2764561 C60.3764058,19.5849057 59.1402071,19.657096 57.882835,19.414274 C58.9024139,22.6234619 61.8634275,24.9581624 65.3749486,25.02379 C62.0034975,27.6866284 57.7557948,28.876128 53.5015773,28.3707957 C57.0505589,30.6628384 61.2673159,32 65.7951584,32 C80.6849198,32 89.0972603,19.3322395 88.5890996,7.9704676 C90.1559285,6.83018868 91.51591,5.40771124 92.5908655,3.78835111 L92.5908655,3.78835111 Z" id="Twitter"></path>
                    </g>
                </g>
            </g>
        </g>
    </g>
</svg>